<?xml version="1.0" encoding="UTF-8"?>
<svg xmlns="http://www.w3.org/2000/svg" version="1.1" viewBox="0 0 226.8 56.7">
  <!-- Generator: Adobe Illustrator 28.7.1, SVG Export Plug-In . SVG Version: 1.2.0 Build 142)  -->
  <g>
    <g id="_レイヤー_1" data-name="レイヤー_1">
      <g>
        <path d="M71.7,0l-16.2,56.7h-6.4l-13.2-47.1-13.1,47.1h-6.2L0,0h7.4l12.7,45.5L32.7,0h6.7l12.6,45.9L64.7,0h7Z"/>
        <path d="M143.9,56.7h-37.8V0h37.8v6.1h-30.6v16.5h29.8v6.1h-29.8v21.9h30.6v6.1Z"/>
        <path d="M178.4,56.7V0h14c8.2,0,14.6,1,19.2,3.1,4.7,2.1,8.4,5.3,11.1,9.5,2.7,4.3,4.1,9.5,4.1,15.7s-2.6,14.4-7.7,19.9c-5.1,5.6-14,8.4-26.5,8.4h-14.1ZM185.6,5.9v44.8h7.5c9.2,0,15.8-1.9,20-5.7,4.2-3.8,6.2-9.4,6.2-16.8s-2.1-12.5-6.3-16.4c-4.2-3.9-10.8-5.9-19.9-5.9h-7.5Z"/>
      </g>
    </g>
  </g>
</svg>